{"title":"Premium.Rush.2012.TS.XviD-MATiNE","uid":7620374,"size":1374309929,"categoryP":"video","categoryS":"movies","magnet":"?xt=urn:btih:659703f502c070eac3c4e46d37fba6ac9dfdd67c&amp;dn=Premium.Rush.2012.TS.XviD-MATiNE&amp;tr=udp%3A%2F%2Ftracker.openbittorrent.com%3A80&amp;tr=udp%3A%2F%2Fopen.demonii.com%3A1337&amp;tr=udp%3A%2F%2Ftracker.coppersurfer.tk%3A6969&amp;tr=udp%3A%2F%2Fexodus.desync.com%3A6969","seeders":0,"leechers":1,"uploader":"HeroMaster","files":-1,"time":1347310618,"description":"Premium Rush 2012 TS XviD - MATiNE\n\nSource: 1080 MATiNE CAM Files \n &lt;a href=&quot;\nhttp://www.imdb.com/title/tt1547234/&quot; rel=&quot;nofollow&quot; target=&quot;_NEW&quot;&gt;\nhttp://www.imdb.com/title/tt1547234/&lt;/a&gt;\n\nIn Manhattan, a bike messenger picks up an envelope \nthat attracts the interest of a dirty cop, who pursues \nthe cyclist throughout the city.\n\nVideo:\n\nID                                       : 0\nFormat                                   : MPEG-4 Visual\nFormat profile                           : Advanced Simple@L5\nFormat settings, BVOP                    : 2\nFormat settings, QPel                    : No\nFormat settings, GMC                     : No warppoints\nFormat settings, Matrix                  : Default (H.263)\nMuxing mode                              : Packed bitstream\nCodec ID                                 : XVID\nCodec ID/Hint                            : XviD\nDuration                                 : 1h 23mn\nBit rate                                 : 2 041 Kbps\nWidth                                    : 720 pixels\nHeight                                   : 336 pixels\nDisplay aspect ratio                     : 2.143\nFrame rate                               : 25.000 fps\nColor space                              : YUV\nChroma subsampling                       : 4:2:0\nBit depth                                : 8 bits\nScan type                                : Progressive\nCompression mode                         : Lossy\nBits/(Pixel*Frame)                       : 0.338\nStream size                              : 1.18 GiB (94%)\nWriting library                          : XviD 64\n\nAudio:\nID                                       : 1\nFormat                                   : MPEG Audio\nFormat version                           : Version 1\nFormat profile                           : Layer 3\nMode                                     : Joint stereo\nMode extension                           : MS Stereo\nCodec ID                                 : 55\nCodec ID/Hint                            : MP3\nDuration                                 : 1h 23mn\nBit rate mode                            : Constant\nBit rate                                 : 128 Kbps\nChannel(s)                               : 2 channels\nSampling rate                            : 44.1 KHz\nCompression mode                         : Lossy\nStream size                              : 76.1 MiB (6%)\nAlignment                                : Split accross interleaves\nInterleave, duration                     : 40 ms (1.00 video frame)\nWriting library                          : LAME3.99r\nEncoding settings                        : -m j -V 4 -q 2 -lowpass 17 -b 128\n\n\nTimothy Green TS coming soon as we get audio.... Hint Hint \n\n\nPoster:\n\n &lt;a href=&quot;\nhttp://i.imgur.com/G8O0i.jpg&quot; rel=&quot;nofollow&quot; target=&quot;_NEW&quot;&gt;\nhttp://i.imgur.com/G8O0i.jpg&lt;/a&gt;\n\n\nScreenshots:\n\n &lt;a href=&quot;\nhttp://i.imgur.com/FJo5k.png&quot; rel=&quot;nofollow&quot; target=&quot;_NEW&quot;&gt;\nhttp://i.imgur.com/FJo5k.png&lt;/a&gt;\n\n &lt;a href=&quot;\nhttp://i.imgur.com/qFANH.png&quot; rel=&quot;nofollow&quot; target=&quot;_NEW&quot;&gt;\nhttp://i.imgur.com/qFANH.png&lt;/a&gt;\n\n &lt;a href=&quot;\nhttp://i.imgur.com/j1OQ9.png&quot; rel=&quot;nofollow&quot; target=&quot;_NEW&quot;&gt;\nhttp://i.imgur.com/j1OQ9.png&lt;/a&gt;\n\n\nENJOY!","torrent":{"xt":"urn:btih:659703f502c070eac3c4e46d37fba6ac9dfdd67c","amp;dn":"Premium.Rush.2012.TS.XviD-MATiNE","amp;tr":["udp%3A%2F%2Ftracker.openbittorrent.com%3A80","udp%3A%2F%2Fopen.demonii.com%3A1337","udp%3A%2F%2Ftracker.coppersurfer.tk%3A6969","udp%3A%2F%2Fexodus.desync.com%3A6969"],"infoHash":"659703f502c070eac3c4e46d37fba6ac9dfdd67c","infoHashBuffer":{"type":"Buffer","data":[101,151,3,245,2,192,112,234,195,196,228,109,55,251,166,172,157,253,214,124]},"announce":[],"urlList":[]}}